<?xml version="1.0" encoding="utf-8"?>
<!-- Generator: Adobe Illustrator 22.0.1, SVG Export Plug-In . SVG Version: 6.00 Build 0)  -->
<svg version="1.1" xmlns="http://www.w3.org/2000/svg" xmlns:xlink="http://www.w3.org/1999/xlink" x="0px" y="0px"
	 viewBox="0 0 324.6 285.3" style="enable-background:new 0 0 324.6 285.3;" xml:space="preserve">
<style type="text/css">
	.st0{opacity:0.75;}
	.st1{opacity:0.6;}
</style>
<g id="Layer_1">
</g>
<g id="Layer_2">
</g>
<g id="Layer_3">
</g>
<g id="Layer_4">
</g>
<g id="Layer_5">
</g>
<g id="Layer_6">
	<path class="st0" d="M117.9,114.1c3.8,3.3,6.2,8.1,6.2,13.4c0,3-1,5.7-2.6,8.1c7.2,3.1,12.6,10,12.6,17.9c0,5.7-2.7,10.9-6.8,14.3
		c-3.5,2.9-8,4.5-15.7,4.5H92l-11.1-62.8h21.9C110.2,109.5,114.6,111.2,117.9,114.1z M94.9,120.2l2.4,13.5h6.7c3.6,0,5.3-0.7,6.4-2
		c1-1.1,1.5-2.5,1.5-4.2c0-2.2-1-4.2-2.6-5.6c-1.3-1.1-2.9-1.7-6.4-1.7H94.9z M99.2,144l3.1,17.5h9c5.2,0,7.4-1,8.9-2.8
		c1.2-1.3,1.8-3.2,1.8-5.2c0-2.7-1.2-5.2-3-7c-1.7-1.5-3.9-2.5-9.1-2.5H99.2z M180.6,171.7c-2.4,0.9-5.7,1.4-9,1.4
		c-5.9,0-12.5-2.2-16.3-7.4c-2.1-2.9-3.2-6.1-4.2-11.5l-2.7-14.8h-12.1l-1.7-9.9h12.1l-2-11.2h11.7l2,11.2h14.8l1.7,9.9h-14.8
		l2.7,14.8c0.5,3,1.2,4.5,2.2,5.7c1.6,2.2,4.5,2.8,7.4,2.8c1.4,0,3.6-0.4,4.8-0.7L180.6,171.7z M244.2,161
		c-5.4,6.9-14,12.2-25.9,12.2c-19.6,0-35.3-15.9-35.3-34.1c0-17.1,13.4-30.5,31.7-30.5c8,0,14.8,2.9,20.6,7.3l-6.1,9.1
		c-3.9-2.9-8.8-5.6-14.5-5.6c-11,0-19.5,8.2-19.5,19.7c0,12.6,10.8,23.3,23.2,23.3c9.4,0,13.7-4.7,17.9-9L244.2,161z"/>
	<g class="st0">
		<g>
			<path d="M284.7,142.6c-0.3-51-32.3-97.1-80.1-114.9C156.8,9.9,100.8,25,68.3,64.3C35.4,104,30.7,161.7,57.5,205.9
				c26.6,43.9,78.8,66.6,129,56.7c49.2-9.7,88.9-50.9,96.6-100.5C284.2,155.7,284.7,149.2,284.7,142.6c0-7.7-12-7.7-12,0
				c-0.3,45.5-28.9,87.8-71.9,103.6c-43.9,16.1-93.7,2.6-123.6-33.2c-29.6-35.4-33.3-87.5-9.7-127C91.2,46.4,138.7,25.1,184,34.3
				c44.8,9.1,79.8,45.6,87.3,90.6c1,5.8,1.3,11.8,1.4,17.7C272.8,150.4,284.8,150.4,284.7,142.6z"/>
		</g>
	</g>
</g>
</svg>
