<?xml version="1.0" encoding="utf-8"?>
<!-- Generator: Adobe Illustrator 22.0.1, SVG Export Plug-In . SVG Version: 6.00 Build 0)  -->
<svg version="1.1" id="Layer_1" xmlns="http://www.w3.org/2000/svg" xmlns:xlink="http://www.w3.org/1999/xlink" x="0px" y="0px"
	 viewBox="0 0 324.6 285.3" style="enable-background:new 0 0 324.6 285.3;" xml:space="preserve">
<style type="text/css">
	.st0{opacity:0.75;enable-background:new    ;}
	.st1{opacity:0.75;}
</style>
<g id="Layer_1_1_">
</g>
<g id="Layer_2_1_">
</g>
<g id="Layer_3">
</g>
<g id="Layer_4">
</g>
<g id="Layer_5">
</g>
<g id="Layer_6">
	<path class="st0" d="M112.3,110.5c4.3,3.7,7,9.1,7,15.1c0,3.4-1.1,6.4-2.9,9.1c8.1,3.5,14.2,11.3,14.2,20.1c0,6.4-3,12.3-7.7,16.1
		c-3.9,3.3-9,5.1-17.7,5.1H83.2l-12.5-70.7h24.6C103.7,105.4,108.6,107.3,112.3,110.5z M86.5,117.4l2.7,15.2h7.5
		c4.1,0,6-0.8,7.2-2.3c1.1-1.2,1.7-2.8,1.7-4.7c0-2.5-1.1-4.7-2.9-6.3c-1.5-1.2-3.3-1.9-7.2-1.9C95.5,117.4,86.5,117.4,86.5,117.4z
		 M91.3,144.2l3.5,19.7h10.1c5.9,0,8.3-1.1,10-3.2c1.4-1.5,2-3.6,2-5.9c0-3-1.4-5.9-3.4-7.9c-1.9-1.7-4.4-2.8-10.2-2.8H91.3z
		 M182.9,175.3c-2.7,1-6.4,1.6-10.1,1.6c-6.6,0-14.1-2.5-18.3-8.3c-2.4-3.3-3.6-6.9-4.7-12.9l-3-16.7H133l-1.9-11.1h13.6l-2.3-12.6
		h13.2l2.3,12.6h16.7l1.9,11.1h-16.7l3,16.7c0.6,3.4,1.4,5.1,2.5,6.4c1.8,2.5,5.1,3.2,8.3,3.2c1.6,0,4.1-0.5,5.4-0.8L182.9,175.3z
		 M254.4,163.3c-6.1,7.8-15.8,13.7-29.1,13.7c-22.1,0-39.7-17.9-39.7-38.4c0-19.2,15.1-34.3,35.7-34.3c9,0,16.7,3.3,23.2,8.2
		l-6.9,10.2c-4.4-3.3-9.9-6.3-16.3-6.3c-12.4,0-21.9,9.2-21.9,22.2c0,14.2,12.2,26.2,26.1,26.2c10.6,0,15.4-5.3,20.1-10.1
		L254.4,163.3z"/>
	<g class="st1">
		<g>
			<path d="M300,142.6c-0.3-57.4-36.3-109.2-90.1-129.3s-116.8-3-153.3,41.2c-37,44.7-42.3,109.6-12.2,159.3
				c29.9,49.4,88.7,74.9,145.1,63.8c55.4-10.9,100-57.3,108.7-113.1C299.4,157.3,300,150,300,142.6c0-8.7-13.5-8.7-13.5,0
				c-0.3,51.2-32.5,98.8-80.9,116.6c-49.4,18.1-105.4,2.9-139.1-37.4C33.2,182,29.1,123.4,55.6,78.9c26.7-44.6,80.1-68.5,131.1-58.2
				c50.4,10.2,89.8,51.3,98.2,101.9c1.1,6.5,1.5,13.3,1.6,19.9C286.6,151.4,300.1,151.4,300,142.6z"/>
		</g>
	</g>
</g>
</svg>
