<?xml version="1.0" encoding="utf-8"?>
<!-- Generator: Adobe Illustrator 22.0.1, SVG Export Plug-In . SVG Version: 6.00 Build 0)  -->
<svg version="1.1" xmlns="http://www.w3.org/2000/svg" xmlns:xlink="http://www.w3.org/1999/xlink" x="0px" y="0px"
	 viewBox="0 0 400 157" style="enable-background:new 0 0 400 157;" xml:space="preserve">
<style type="text/css">
	.st0{opacity:0.75;}
	.st1{opacity:0.6;}
</style>
<g id="Layer_1">
</g>
<g id="Layer_2">
</g>
<g id="Layer_3">
</g>
<g id="Layer_4">
</g>
<g id="Layer_5">
</g>
<g id="Layer_6">
	<path class="st0" d="M101.5,11.1c2.8,2.4,4.5,5.9,4.5,9.8c0,2.2-0.7,4.2-1.9,5.9c5.2,2.3,9.2,7.3,9.2,13.1c0,4.1-2,7.9-5,10.4
		c-2.6,2.1-5.8,3.3-11.5,3.3H82.5L74.4,7.6h16C95.8,7.6,99,8.9,101.5,11.1z M84.7,15.5l1.8,9.8h4.9c2.6,0,3.9-0.5,4.7-1.4
		c0.7-0.8,1.1-1.8,1.1-3.1c0-1.6-0.7-3.1-1.9-4.1c-0.9-0.8-2.1-1.2-4.7-1.2H84.7z M87.8,32.9l2.3,12.8h6.6c3.8,0,5.4-0.7,6.5-2
		c0.9-1,1.3-2.4,1.3-3.8c0-2-0.9-3.8-2.2-5.1c-1.2-1.1-2.9-1.8-6.6-1.8H87.8z M149,49.8c-3.4,2.8-8.3,4.4-12.7,4.4
		c-9.8,0-18-6.6-18-16.9c0-9.1,5.9-15.6,14.9-15.6c8.7,0,15.7,7.4,15.7,16.9c0,0.5,0,1-0.1,1.6h-22.1c0.9,4.2,4.9,7.2,9.5,7.2
		c3.3,0,6.2-1.4,8.2-3.1L149,49.8z M140.6,34.2c-1.1-3.4-3.9-5.5-7.1-5.5c-3.5,0-6,2-7,5.5H140.6z M159.5,7l3.3,18.4
		c2.4-2.2,5.8-3.6,9.4-3.6c4.4,0,8.3,1.7,11.2,4.5c2.5,2.4,4.3,5.8,5.2,11.2l2.8,16.1h-8.6l-2.7-15.3c-0.7-3.6-1.6-5.6-3.2-6.9
		c-1.3-1.1-3-1.8-5.2-1.8c-3.2,0-6.4,2.4-7.4,4.3l3.5,19.7h-8.6L150.9,7H159.5z M197.3,16.6c-3.1,0-5.6-2.4-5.6-5.4
		c0-3.1,2.5-5.4,5.6-5.4c3.1,0,5.6,2.4,5.6,5.4C202.8,14.2,200.3,16.6,197.3,16.6z M203.6,22.4l5.5,31.2h-8.6L195,22.4H203.6z
		 M221.1,22.4l0.7,3.5c2.2-2.4,6-4.2,9.8-4.2c4.5,0,8.5,1.6,11.4,4.5c2.5,2.4,4.3,5.8,5.2,11.2l2.8,16.1h-8.6l-2.7-15.3
		c-0.7-3.6-1.6-5.6-3.2-6.9c-1.3-1.1-3-1.8-5.2-1.8c-3.2,0-6.4,2.4-7.4,4.3l3.5,19.7h-8.6l-5.5-31.2H221.1z M282.8,53.6l-0.5-3
		c-3.3,2.4-6.7,3.6-10.2,3.6c-3.3,0-6.2-1-8.6-2.4c-5.3-3.2-8.5-9.5-8.5-15.4c0-8.8,6.4-14.7,14-14.7c3.3,0,5.8,0.8,7.8,2.2l-3-16.9
		h8.6l8.3,46.6H282.8z M278.4,33c-2.1-2.2-4.8-3.5-7.6-3.5c-4.5,0-7.3,3-7.3,7.3c0,5.4,4.2,9.4,9.1,9.4c2.8,0,5.6-1.1,7.5-3.1
		L278.4,33z M45,107.2c-1.8,0.7-4.1,1.1-6.6,1.1c-4.3,0-9.1-1.6-11.9-5.4c-1.5-2.1-2.4-4.5-3.1-8.4l-2-10.8h-8.9l-1.2-7.2h8.9
		l-1.4-8.2h8.6l1.4,8.2h10.8l1.2,7.2H30l2,10.8c0.4,2.2,0.9,3.3,1.6,4.2c1.2,1.6,3.3,2,5.4,2c1,0,2.6-0.3,3.5-0.5L45,107.2z
		 M53.5,61l3.3,18.4c2.4-2.2,5.8-3.6,9.4-3.6c4.4,0,8.3,1.7,11.2,4.5c2.5,2.4,4.3,5.8,5.2,11.2l2.8,16.1h-8.6l-2.7-15.3
		c-0.7-3.6-1.6-5.6-3.2-6.9c-1.3-1.1-3-1.8-5.2-1.8c-3.2,0-6.4,2.4-7.4,4.3l3.5,19.7h-8.6L44.9,61H53.5z M120,103.8
		c-3.4,2.8-8.3,4.4-12.7,4.4c-9.8,0-18-6.6-18-16.9c0-9.1,5.9-15.6,14.9-15.6c8.7,0,15.7,7.4,15.7,16.9c0,0.5,0,1-0.1,1.6H97.8
		c0.9,4.2,4.9,7.2,9.5,7.2c3.3,0,6.2-1.4,8.2-3.1L120,103.8z M111.6,88.1c-1.1-3.4-3.9-5.5-7.1-5.5c-3.5,0-6,2-7,5.5H111.6z
		 M185.9,99.3c-3.9,5.1-10.2,8.9-19,8.9c-14.4,0-25.9-11.6-25.9-24.9c0-12.5,9.8-22.3,23.2-22.3c5.8,0,10.8,2.1,15.1,5.3l-4.5,6.6
		c-2.8-2.1-6.4-4.1-10.6-4.1c-8.1,0-14.3,6-14.3,14.4c0,9.2,7.9,17.1,17,17.1c6.9,0,10-3.4,13.1-6.6L185.9,99.3z M217,107.6
		l-0.7-3.5c-2.4,2.6-6.1,4.2-9.9,4.2c-4.4,0-8.3-1.6-11.2-4.4c-2.5-2.4-4-5.9-4.9-11.3l-2.8-16.1h8.6l2.7,15.3
		c0.7,3.6,1.6,5.7,3.2,7c1.2,1.1,2.8,1.6,4.7,1.6c2.8,0,6-1.6,7.5-4.3l-3.5-19.7h8.6l5.5,31.2H217z M249.5,83.8
		c-0.6-0.1-1.6-0.2-2.2-0.2c-3,0-6,1.8-7.5,4.6l3.4,19.4h-8.6L229,76.4h7.8l0.7,3.8c1.5-1.9,4.9-4.5,9.8-4.5c1,0,2,0.1,3,0.3
		L249.5,83.8z M288.3,107.2c-1.8,0.7-4.1,1.1-6.6,1.1c-4.3,0-9.1-1.6-11.9-5.4c-1.5-2.1-2.4-4.5-3.1-8.4l-2-10.8h-8.9l-1.2-7.2h8.9
		l-1.4-8.2h8.6l1.4,8.2h10.8l1.2,7.2h-10.8l2,10.8c0.4,2.2,0.9,3.3,1.6,4.2c1.2,1.6,3.3,2,5.4,2c1,0,2.6-0.3,3.5-0.5L288.3,107.2z
		 M318.8,107.6l-0.5-3c-3.3,2.4-6.7,3.6-10.2,3.6c-3.3,0-6.2-1-8.6-2.4c-5.3-3.2-8.5-9.5-8.5-15.4c0-8.8,6.4-14.7,14-14.7
		c3.3,0,6.3,0.9,8.7,2.8l-0.3-2.1h7.8l5.5,31.2H318.8z M314.5,87c-2.1-2.2-4.8-3.5-7.6-3.5c-4.5,0-7.3,3-7.3,7.3
		c0,5.4,4.2,9.4,9.1,9.4c2.8,0,5.6-1.1,7.5-3.1L314.5,87z M333.3,70.5c-3.1,0-5.6-2.4-5.6-5.4c0-3.1,2.5-5.4,5.6-5.4
		s5.6,2.4,5.6,5.4C338.9,68.2,336.4,70.5,333.3,70.5z M339.6,76.4l5.5,31.2h-8.6L331,76.4H339.6z M357.1,76.4l0.7,3.5
		c2.2-2.4,6-4.2,9.8-4.2c4.5,0,8.5,1.6,11.4,4.5c2.5,2.4,4.3,5.8,5.2,11.2l2.8,16.1h-8.6l-2.7-15.3c-0.7-3.6-1.6-5.6-3.2-6.9
		c-1.3-1.1-3-1.8-5.2-1.8c-3.2,0-6.4,2.4-7.4,4.3l3.5,19.7h-8.6l-5.5-31.2H357.1z M116.5,142.7c-1.4,1.7-3.4,2.8-6.2,2.8
		c-4.3,0-8-3.2-8-7.8c0-4,3-7,7.2-7c2.3,0,4,0.8,5.4,2.1l-1.1,1.3c-1.2-1.1-2.7-1.7-4.3-1.7c-3.1,0-5.4,2.3-5.4,5.3
		c0,3.3,2.7,6.1,6.2,6.1c2.2,0,3.8-0.9,4.9-2.2L116.5,142.7z M123.5,127.4c-0.9,0-1.6-0.7-1.6-1.6c0-0.9,0.7-1.6,1.6-1.6
		c0.9,0,1.6,0.7,1.6,1.6C125.1,126.7,124.4,127.4,123.5,127.4z M125.3,131l2.5,14.2H126l-2.5-14.2H125.3z M149.8,145.2l-1.3-7.7
		c-0.3-1.7-0.7-2.6-1.3-3.4c-0.9-1-2.2-1.7-3.8-1.7c-1.9,0-3.9,1.2-5,3l1.7,9.7h-1.8l-2.5-14.2h1.8l0.4,2.3c1.2-1.6,3.1-2.6,5.4-2.6
		c2,0,3.8,0.8,5,2.2c0.9,1,1.5,2.5,1.8,4.1l1.4,8.2H149.8z M161.3,138.3c0.3,3.1,2.7,5.5,5.9,5.5c1.8,0,3.3-0.7,4.4-1.7l1.1,1.4
		c-1.5,1.3-3.3,2-5.4,2c-4.2,0-7.8-3.2-7.8-7.8c0-4,2.6-7,6.6-7c4.1,0,7,3.3,7.1,7.6H161.3z M161.4,136.6h9.8
		c-0.5-2.4-2.5-4.2-5-4.2C163.5,132.4,161.8,134.1,161.4,136.6z M194.9,145.2l-1.3-7.7c-0.3-1.7-0.6-2.7-1.3-3.5
		c-0.8-1-2-1.6-3.5-1.6c-2,0-3.9,1.2-5,3l1.7,9.7h-1.8l-2.5-14.2h1.8l0.4,2.3c1.3-1.6,3.2-2.6,5.5-2.6c2,0,3.5,0.8,4.7,2.1
		c0.3,0.3,0.5,0.7,0.7,1c1.3-1.6,3.1-3.1,5.9-3.1c2,0,3.5,0.8,4.7,2.1c0.9,1,1.5,2.6,1.8,4.2l1.4,8.2h-1.8l-1.3-7.7
		c-0.3-1.7-0.6-2.7-1.3-3.5c-0.8-1-2-1.6-3.5-1.6c-2.1,0-4,1.3-5.1,3.1c0.1,0.5,0.3,0.9,0.3,1.4l1.4,8.2H194.9z M229.3,143
		c-1.5,1.7-3.5,2.5-5.6,2.5c-4.3,0-7.7-3.3-7.7-7.8c0-4,3.1-7,6.9-7c1.8,0,3.4,0.7,4.6,1.8l-0.3-1.5h1.8l2.5,14.2h-1.8L229.3,143z
		 M227.9,135c-1.3-1.6-3-2.6-5-2.6c-3,0-5.1,2.5-5.1,5.3c0,3.4,2.6,6.1,5.9,6.1c2.1,0,4.1-1.2,5.2-2.9L227.9,135z M267.3,142.7
		c-1.4,1.7-3.4,2.8-6.2,2.8c-4.3,0-8-3.2-8-7.8c0-4,3-7,7.2-7c2.3,0,4,0.8,5.4,2.1l-1.1,1.3c-1.2-1.1-2.7-1.7-4.3-1.7
		c-3.1,0-5.4,2.3-5.4,5.3c0,3.3,2.7,6.1,6.2,6.1c2.2,0,3.8-0.9,4.9-2.2L267.3,142.7z M278.7,145.2h-1.8l-4-22.5h1.8L278.7,145.2z
		 M288.2,131l1.3,7.7c0.3,1.7,0.6,2.8,1.3,3.5c0.8,1,2,1.6,3.5,1.6c2,0,3.9-1.2,5-3l-1.7-9.7h1.8l2.5,14.2h-1.8l-0.4-2.3
		c-1.3,1.6-3.2,2.6-5.5,2.6c-2,0-3.5-0.7-4.7-2.1c-0.9-1-1.5-2.6-1.8-4.2l-1.4-8.2H288.2z M312.1,133.2c1.5-1.7,3.5-2.5,5.6-2.5
		c4.3,0,7.7,3.3,7.7,7.8c0,4-3.1,7-6.9,7c-1.8,0-3.4-0.7-4.6-1.8l0.3,1.5h-1.8l-4-22.5h1.8L312.1,133.2z M313.5,141.2
		c1.3,1.6,3,2.6,5,2.6c3,0,5.1-2.5,5.1-5.3c0-3.4-2.6-6.1-5.9-6.1c-2.1,0-4.1,1.2-5.2,2.9L313.5,141.2z"/>
</g>
</svg>
