<?xml version="1.0" encoding="utf-8"?>
<!-- Generator: Adobe Illustrator 22.0.1, SVG Export Plug-In . SVG Version: 6.00 Build 0)  -->
<svg version="1.1" id="Layer_1" xmlns="http://www.w3.org/2000/svg" xmlns:xlink="http://www.w3.org/1999/xlink" x="0px" y="0px"
	 viewBox="0 0 16 16" style="enable-background:new 0 0 16 16;" xml:space="preserve">
<style type="text/css">
	.st0{opacity:0.75;enable-background:new    ;}
</style>
<path class="st0" d="M3.7,5.4c0.4,0.3,0.6,0.8,0.6,1.3c0,0.3-0.1,0.5-0.2,0.8c0.7,0.3,1.2,1,1.2,1.7c0,0.5-0.3,1-0.7,1.4
	C4.3,10.9,3.9,11,3.1,11H1.2L0.2,5h2.1C3,5,3.4,5.2,3.7,5.4z M1.5,6l0.2,1.3h0.6c0.3,0,0.5-0.1,0.6-0.2C3.1,7,3.1,6.9,3.1,6.7
	c0-0.2-0.1-0.4-0.2-0.5C2.8,6.1,2.6,6,2.3,6C2.3,6,1.5,6,1.5,6z M1.9,8.3L2.2,10h0.9c0.5,0,0.7-0.1,0.9-0.3c0.1-0.1,0.2-0.3,0.2-0.5
	c0-0.3-0.1-0.5-0.3-0.7C3.7,8.4,3.4,8.3,2.9,8.3H1.9z M9.7,11c-0.2,0.1-0.5,0.1-0.9,0.1c-0.6,0-1.2-0.2-1.6-0.7
	C7.1,10.1,7,9.8,6.9,9.3L6.6,7.9H5.5L5.3,6.9h1.2L6.3,5.8h1.1l0.2,1.1H9l0.2,0.9H7.8L8,9.3c0,0.3,0.1,0.4,0.2,0.5
	c0.2,0.2,0.4,0.3,0.7,0.3c0.1,0,0.3,0,0.5-0.1L9.7,11z M15.8,9.9c-0.5,0.7-1.3,1.2-2.5,1.2c-1.9,0-3.4-1.5-3.4-3.3
	c0-1.6,1.3-2.9,3-2.9c0.8,0,1.4,0.3,2,0.7l-0.6,0.9C14,6.2,13.6,5.9,13,5.9c-1.1,0-1.9,0.8-1.9,1.9c0,1.2,1,2.2,2.2,2.2
	c0.9,0,1.3-0.5,1.7-0.9L15.8,9.9z"/>
</svg>
